<svg width="151" height="58" viewBox="0 0 151 58" fill="none" xmlns="http://www.w3.org/2000/svg">
<path d="M10.5 13.5H143.5V45.5H10.5V13.5Z" stroke="black"/>
<path d="M35.4312 27.1117H33.7906C33.6936 26.6727 33.5238 26.2869 33.2812 25.9546C33.0431 25.6221 32.7521 25.3431 32.408 25.1174C32.0685 24.8876 31.6914 24.7152 31.2768 24.6004C30.8623 24.4855 30.4301 24.428 29.9802 24.428C29.1599 24.428 28.4168 24.6208 27.7509 25.0066C27.0894 25.3923 26.5624 25.9607 26.1699 26.7117C25.7817 27.4626 25.5877 28.3838 25.5877 29.4754C25.5877 30.5669 25.7817 31.4881 26.1699 32.2391C26.5624 32.9901 27.0894 33.5583 27.7509 33.9441C28.4168 34.3298 29.1599 34.5227 29.9802 34.5227C30.4301 34.5227 30.8623 34.4652 31.2768 34.3504C31.6914 34.2355 32.0685 34.0652 32.408 33.8395C32.7521 33.6096 33.0431 33.3286 33.2812 32.9962C33.5238 32.6597 33.6936 32.2739 33.7906 31.839H35.4312C35.3077 32.4832 35.0828 33.0598 34.7564 33.5687C34.4301 34.0775 34.0244 34.5104 33.5392 34.8674C33.0541 35.2203 32.5094 35.4891 31.9053 35.6738C31.3055 35.8584 30.6638 35.9508 29.9802 35.9508C28.8248 35.9508 27.7972 35.6881 26.8975 35.1629C25.9978 34.6376 25.29 33.8908 24.774 32.9223C24.258 31.9539 24 30.8049 24 29.4754C24 28.1458 24.258 26.9968 24.774 26.0284C25.29 25.06 25.9978 24.3131 26.8975 23.7879C27.7972 23.2626 28.8248 23 29.9802 23C30.6638 23 31.3055 23.0923 31.9053 23.277C32.5094 23.4617 33.0541 23.7325 33.5392 24.0895C34.0244 24.4424 34.4301 24.8732 34.7564 25.3821C35.0828 25.8868 35.3077 26.4634 35.4312 27.1117ZM42.351 36C41.7071 36 41.1227 35.8872 40.5979 35.6615C40.0731 35.4316 39.6564 35.1014 39.3476 34.6704C39.0389 34.2355 38.8846 33.7102 38.8846 33.0947C38.8846 32.553 38.9992 32.114 39.2286 31.7774C39.4579 31.4368 39.7644 31.1702 40.1481 30.9772C40.5317 30.7844 40.9552 30.6408 41.4182 30.5464C41.8856 30.4479 42.3554 30.37 42.8272 30.3125C43.4447 30.2387 43.9452 30.1832 44.3289 30.1463C44.717 30.1053 44.9992 30.0375 45.1756 29.9431C45.3565 29.8487 45.4469 29.6846 45.4469 29.4508V29.4015C45.4469 28.7942 45.2683 28.3223 44.911 27.9858C44.5583 27.6493 44.0224 27.481 43.3036 27.481C42.5582 27.481 41.9739 27.6329 41.5505 27.9365C41.1271 28.2402 40.8294 28.5643 40.6575 28.9091L39.1757 28.4167C39.4403 27.8422 39.7931 27.3949 40.234 27.0748C40.6795 26.7506 41.1646 26.5249 41.6894 26.3977C42.2186 26.2664 42.739 26.2008 43.2507 26.2008C43.577 26.2008 43.9518 26.2377 44.3753 26.3115C44.803 26.3813 45.2154 26.527 45.6123 26.7486C46.0136 26.9701 46.3465 27.3046 46.6112 27.7518C46.8758 28.1991 47.0081 28.7983 47.0081 29.5492V35.7784H45.4469V34.4981H45.3675C45.2617 34.7033 45.0853 34.9228 44.8383 35.1567C44.5914 35.3906 44.2627 35.5896 43.8526 35.7538C43.4424 35.9179 42.9419 36 42.351 36ZM42.5891 34.6951C43.2065 34.6951 43.7269 34.5822 44.1503 34.3565C44.5781 34.1309 44.9 33.8395 45.1161 33.4825C45.3367 33.1254 45.4469 32.75 45.4469 32.356V31.0265C45.3807 31.1004 45.2353 31.1681 45.0103 31.2296C44.7897 31.2871 44.534 31.3384 44.2429 31.3835C43.9563 31.4245 43.6762 31.4614 43.4028 31.4943C43.1338 31.5231 42.9154 31.5477 42.7479 31.5681C42.3421 31.6174 41.9629 31.6974 41.61 31.8082C41.2617 31.9149 40.9794 32.077 40.7633 32.2945C40.5516 32.5079 40.4458 32.7992 40.4458 33.1685C40.4458 33.6733 40.6464 34.0549 41.0477 34.3135C41.4535 34.5678 41.9672 34.6951 42.5891 34.6951ZM51.3479 35.7784V26.3238H52.8562V27.7518H52.962C53.1473 27.2841 53.4824 26.9045 53.9676 26.6131C54.4527 26.3218 54.9995 26.1762 55.6081 26.1762C55.7228 26.1762 55.8661 26.1782 56.0381 26.1823C56.2101 26.1864 56.3402 26.1925 56.4284 26.2008V27.678C56.3755 27.6657 56.2542 27.6472 56.0646 27.6226C55.8793 27.5939 55.6831 27.5796 55.4758 27.5796C54.9819 27.5796 54.5409 27.6759 54.1527 27.8688C53.7691 28.0576 53.4648 28.3202 53.2398 28.6567C53.0194 28.9891 52.9091 29.3687 52.9091 29.7954V35.7784H51.3479ZM58.8945 35.7784V34.6704L66.1977 24.5265H58.8151V23.1723H68.1558V24.2803L60.8526 34.4242H68.2352V35.7784H58.8945ZM76.3937 35.9754C75.4764 35.9754 74.6714 35.7722 73.9791 35.3659C73.2911 34.9597 72.7531 34.3914 72.3649 33.661C71.9813 32.9305 71.7894 32.077 71.7894 31.1004C71.7894 30.1155 71.9813 29.2559 72.3649 28.5213C72.7531 27.7868 73.2911 27.2163 73.9791 26.8101C74.6714 26.4038 75.4764 26.2008 76.3937 26.2008C77.3106 26.2008 78.1135 26.4038 78.8019 26.8101C79.4939 27.2163 80.0323 27.7868 80.416 28.5213C80.8035 29.2559 80.9982 30.1155 80.9982 31.1004C80.9982 32.077 80.8035 32.9305 80.416 33.661C80.0323 34.3914 79.4939 34.9597 78.8019 35.3659C78.1135 35.7722 77.3106 35.9754 76.3937 35.9754ZM76.3937 34.6704C77.0905 34.6704 77.6637 34.5042 78.1135 34.1719C78.5634 33.8395 78.8969 33.4024 79.113 32.8608C79.329 32.3191 79.4371 31.7323 79.4371 31.1004C79.4371 30.4684 79.329 29.8796 79.113 29.3338C78.8969 28.788 78.5634 28.3469 78.1135 28.0104C77.6637 27.6739 77.0905 27.5056 76.3937 27.5056C75.6968 27.5056 75.1236 27.6739 74.6737 28.0104C74.2239 28.3469 73.8909 28.788 73.6748 29.3338C73.4587 29.8796 73.3507 30.4684 73.3507 31.1004C73.3507 31.7323 73.4587 32.3191 73.6748 32.8608C73.8909 33.4024 74.2239 33.8395 74.6737 34.1719C75.1236 34.5042 75.6968 34.6704 76.3937 34.6704ZM86.4321 30.0909V35.7784H84.871V26.3238H86.3799V27.8012H86.5122C86.7497 27.321 87.1121 26.9353 87.5964 26.6439C88.0817 26.3485 88.7085 26.2008 89.4751 26.2008C90.1634 26.2008 90.7651 26.3321 91.2811 26.5947C91.7971 26.8532 92.1986 27.2471 92.4855 27.7765C92.7723 28.3017 92.9158 28.9666 92.9158 29.7708V35.7784H91.3547V29.8693C91.3547 29.1266 91.147 28.548 90.7325 28.1335C90.318 27.7149 89.7489 27.5056 89.0261 27.5056C88.5269 27.5056 88.0817 27.6062 87.6895 27.8073C87.3011 28.0084 86.9947 28.3017 86.7702 28.6875C86.5448 29.0733 86.4321 29.541 86.4321 30.0909ZM101.518 35.9754C100.54 35.9754 99.6947 35.7743 98.985 35.3721C98.2799 34.9659 97.735 34.3996 97.3512 33.6733C96.9722 32.9428 96.7821 32.0934 96.7821 31.125C96.7821 30.1566 96.9722 29.303 97.3512 28.5643C97.735 27.8216 98.2687 27.243 98.9524 26.8286C99.6398 26.41 100.443 26.2008 101.36 26.2008C101.889 26.2008 102.412 26.2828 102.928 26.447C103.444 26.6111 103.913 26.8778 104.337 27.2471C104.76 27.6124 105.098 28.0966 105.349 28.6998C105.6 29.303 105.726 30.0457 105.726 30.928V31.5435H97.8933V30.2879H104.139C104.139 29.7544 104.024 29.2784 103.795 28.8598C103.569 28.4413 103.247 28.1109 102.829 27.8688C102.414 27.6267 101.925 27.5056 101.36 27.5056C100.738 27.5056 100.2 27.6493 99.7459 27.9365C99.2961 28.2197 98.9496 28.589 98.7074 29.0445C98.4643 29.5 98.3432 29.9883 98.3432 30.5095V31.3466C98.3432 32.0606 98.4755 32.6658 98.74 33.1624C99.0092 33.6548 99.3818 34.0303 99.8587 34.2888C100.335 34.5432 100.888 34.6704 101.518 34.6704C101.929 34.6704 102.299 34.6171 102.631 34.5104C102.965 34.3996 103.255 34.2355 103.497 34.018C103.739 33.7964 103.927 33.5214 104.059 33.1931L105.567 33.5871C105.408 34.0631 105.142 34.4817 104.767 34.8428C104.392 35.1998 103.929 35.4789 103.378 35.6799C102.826 35.8768 102.207 35.9754 101.518 35.9754ZM110.597 23.1723L114.09 28.4167H114.195L117.688 23.1723H119.62L115.359 29.4754L119.62 35.7784H117.688L114.195 30.6326H114.09L110.597 35.7784H108.665L113.031 29.4754L108.665 23.1723H110.597ZM126.343 35.9754C125.496 35.9754 124.748 35.7763 124.1 35.3783C123.452 34.9761 122.945 34.4098 122.579 33.6794C122.213 32.9449 122.029 32.077 122.029 31.0758C122.029 30.0827 122.213 29.2209 122.579 28.4905C122.945 27.7601 123.455 27.1959 124.106 26.7978C124.759 26.3998 125.514 26.2008 126.369 26.2008C127.031 26.2008 127.554 26.3033 127.937 26.5085C128.325 26.7096 128.621 26.9393 128.823 27.1979C129.031 27.4523 129.192 27.6616 129.307 27.8258H129.439V23.1723H131V35.7784H129.492V34.3258H129.307C129.192 34.4981 129.029 34.7156 128.817 34.9782C128.605 35.2367 128.304 35.4686 127.91 35.6738C127.518 35.8749 126.996 35.9754 126.343 35.9754ZM126.554 34.6704C127.181 34.6704 127.71 34.5186 128.142 34.2149C128.575 33.9072 128.903 33.4825 129.128 32.9408C129.353 32.395 129.465 31.7651 129.465 31.0512C129.465 30.3453 129.355 29.7278 129.134 29.1984C128.914 28.6649 128.588 28.2504 128.155 27.955C127.723 27.6555 127.19 27.5056 126.554 27.5056C125.893 27.5056 125.342 27.6636 124.901 27.9796C124.464 28.2915 124.135 28.7162 123.916 29.2538C123.699 29.7872 123.591 30.3863 123.591 31.0512C123.591 31.7241 123.701 32.3356 123.922 32.8854C124.147 33.4312 124.477 33.8662 124.914 34.1903C125.355 34.5104 125.902 34.6704 126.554 34.6704Z" fill="black"/>
</svg>
